<?xml version="1.0" standalone="no"?>
<!DOCTYPE svg PUBLIC "-//W3C//DTD SVG 20010904//EN"
 "http://www.w3.org/TR/2001/REC-SVG-20010904/DTD/svg10.dtd">
<svg version="1.0" xmlns="http://www.w3.org/2000/svg"
 width="198.000000pt" height="170.000000pt" viewBox="0 0 198.000000 170.000000"
 preserveAspectRatio="xMidYMid meet">

<g transform="translate(0.000000,170.000000) scale(0.100000,-0.100000)"
fill="#000000" stroke="none">
<path d="M685 1420 c-200 -53 -369 -223 -420 -425 -19 -76 -19 -214 0 -290 53
-206 231 -381 437 -430 232 -55 487 43 620 237 203 295 104 696 -213 863 -123
65 -286 82 -424 45z m295 -12 c98 -20 236 -108 302 -192 87 -110 128 -228 128
-366 -1 -109 -12 -156 -61 -258 -56 -117 -135 -195 -260 -256 -76 -37 -110
-48 -174 -55 -241 -25 -451 75 -570 274 -131 219 -98 511 78 693 145 150 341
206 557 160z"/>
<path d="M590 1139 c0 -6 21 -48 47 -93 94 -165 103 -181 103 -195 0 -8 -34
-74 -75 -146 -41 -73 -75 -137 -75 -144 0 -8 70 -11 250 -11 140 0 250 4 250
9 0 10 -137 251 -151 266 -16 16 -11 29 71 171 44 76 80 142 80 146 0 5 -112
8 -250 8 -176 0 -250 -3 -250 -11z m440 -16 c0 -5 -43 -32 -96 -62 l-95 -54
-42 23 c-71 39 -157 91 -157 96 0 2 88 4 195 4 107 0 195 -3 195 -7z m20 -21
c0 -5 -17 -37 -38 -73 -21 -35 -51 -86 -66 -112 l-28 -49 -34 57 c-19 31 -34
59 -34 63 0 5 182 117 198 121 1 1 2 -3 2 -7z m-326 -49 c116 -66 110 -57 76
-116 -16 -29 -35 -52 -41 -52 -11 0 -128 189 -129 208 0 13 12 8 94 -40z m106
-204 c0 -98 -7 -104 -40 -38 -19 37 -20 41 -4 72 17 33 34 57 40 57 2 0 4 -41
4 -91z m70 1 c0 -8 -11 -33 -25 -55 l-24 -40 0 95 0 95 24 -40 c14 -22 25 -47
25 -55z m96 -153 c31 -54 55 -99 53 -101 -5 -5 -199 107 -199 116 0 3 15 32
32 63 38 65 30 71 114 -78z m-196 66 l30 -52 -22 -14 c-111 -67 -170 -99 -174
-94 -10 10 114 219 127 215 5 -2 23 -27 39 -55z m105 -108 c33 -19 75 -43 93
-52 17 -9 32 -20 32 -25 0 -4 -89 -8 -197 -8 -120 0 -193 4 -187 9 15 15 178
110 189 111 6 0 37 -16 70 -35z"/>
</g>
</svg>
